<svg width="64" height="64" viewBox="0 0 64 64" xmlns="http://www.w3.org/2000/svg">
  <defs>
    <linearGradient id="bgGradV5" x1="0%" y1="0%" x2="100%" y2="100%">
      <stop offset="0%" style="stop-color:#667eea;stop-opacity:1" />
      <stop offset="100%" style="stop-color:#764ba2;stop-opacity:1" />
    </linearGradient>
    <linearGradient id="coinGradV5" x1="0%" y1="0%" x2="100%" y2="100%">
      <stop offset="0%" style="stop-color:#FFD700;stop-opacity:1" />
      <stop offset="100%" style="stop-color:#FFA500;stop-opacity:1" />
    </linearGradient>
  </defs>

  <!-- Background -->
  <rect width="64" height="64" rx="12" fill="url(#bgGradV5)"/>

  <!-- 同じサイズで左右に配置 -->
  <!-- Star -->
  <g transform="translate(10, 17)">
    <path d="M 11 0 L 13.2 8 L 22 9.9 L 16.5 15.7 L 17.6 24.7 L 11 20.1 L 4.4 24.7 L 5.5 15.7 L 0 9.9 L 8.8 8 Z"
          fill="#FFF59D" stroke="#FFD700" stroke-width="1.4"/>
    <path d="M 11 3.5 L 12.1 8.8 L 17.5 9.9 L 14.2 13.2 L 14.9 18.3 L 11 15.6 L 7.1 18.3 L 7.8 13.2 L 4.5 9.9 L 9.9 8.8 Z"
          fill="#FFEB3B"/>
  </g>

  <!-- Coin -->
  <circle cx="44" cy="36" r="14" fill="url(#coinGradV5)"/>
  <circle cx="44" cy="36" r="11.5" fill="none" stroke="#FFE55C" stroke-width="1.3"/>
  <text x="44" y="42" font-family="Arial, sans-serif" font-size="14" font-weight="bold" fill="#FF8C00" text-anchor="middle">P</text>
</svg>