<svg width="64" height="64" viewBox="0 0 64 64" xmlns="http://www.w3.org/2000/svg">
  <defs>
    <linearGradient id="bgGrad" x1="0%" y1="0%" x2="100%" y2="100%">
      <stop offset="0%" style="stop-color:#667eea;stop-opacity:1" />
      <stop offset="100%" style="stop-color:#764ba2;stop-opacity:1" />
    </linearGradient>
    <linearGradient id="coinGrad" x1="0%" y1="0%" x2="100%" y2="100%">
      <stop offset="0%" style="stop-color:#FFD700;stop-opacity:1" />
      <stop offset="100%" style="stop-color:#FFA500;stop-opacity:1" />
    </linearGradient>
  </defs>

  <!-- Background -->
  <rect width="64" height="64" rx="12" fill="url(#bgGrad)"/>

  <!-- Coin -->
  <circle cx="38" cy="36" r="16" fill="url(#coinGrad)"/>
  <circle cx="38" cy="36" r="13" fill="none" stroke="#FFE55C" stroke-width="1.5"/>
  <text x="38" y="42" font-family="Arial, sans-serif" font-size="16" font-weight="bold" fill="#FF8C00" text-anchor="middle">P</text>

  <!-- Star -->
  <g transform="translate(18, 16)">
    <path d="M 12 0 L 14.4 8.8 L 24 10.8 L 18 17.2 L 19.2 27 L 12 22 L 4.8 27 L 6 17.2 L 0 10.8 L 9.6 8.8 Z"
          fill="#FFF59D" stroke="#FFD700" stroke-width="1.5"/>
    <path d="M 12 4 L 13.2 9.6 L 19 10.8 L 15.5 14.4 L 16.2 20 L 12 17 L 7.8 20 L 8.5 14.4 L 5 10.8 L 10.8 9.6 Z"
          fill="#FFEB3B"/>
  </g>
</svg>