<svg width="64" height="64" viewBox="0 0 64 64" xmlns="http://www.w3.org/2000/svg">
  <defs>
    <linearGradient id="bgGradV2" x1="0%" y1="0%" x2="100%" y2="100%">
      <stop offset="0%" style="stop-color:#667eea;stop-opacity:1" />
      <stop offset="100%" style="stop-color:#764ba2;stop-opacity:1" />
    </linearGradient>
    <linearGradient id="coinGradV2" x1="0%" y1="0%" x2="100%" y2="100%">
      <stop offset="0%" style="stop-color:#FFD700;stop-opacity:1" />
      <stop offset="100%" style="stop-color:#FFA500;stop-opacity:1" />
    </linearGradient>
  </defs>

  <!-- Background -->
  <rect width="64" height="64" rx="12" fill="url(#bgGradV2)"/>

  <!-- より大きいコインを中央に -->
  <circle cx="32" cy="34" r="18" fill="url(#coinGradV2)"/>
  <circle cx="32" cy="34" r="15" fill="none" stroke="#FFE55C" stroke-width="1.5"/>
  <text x="32" y="41" font-family="Arial, sans-serif" font-size="18" font-weight="bold" fill="#FF8C00" text-anchor="middle">P</text>

  <!-- 小さい星を上に -->
  <g transform="translate(20, 8)">
    <path d="M 12 0 L 13.6 6.6 L 20.5 7.7 L 16.2 12.3 L 17 19.3 L 12 15.7 L 7 19.3 L 7.8 12.3 L 3.5 7.7 L 10.4 6.6 Z"
          fill="#FFF59D" stroke="#FFD700" stroke-width="1.2"/>
    <path d="M 12 3 L 13 7.2 L 16.5 7.7 L 14.2 10.3 L 14.7 14 L 12 12 L 9.3 14 L 9.8 10.3 L 7.5 7.7 L 11 7.2 Z"
          fill="#FFEB3B"/>
  </g>
</svg>